<svg width="36" height="36" viewBox="0 0 36 36" fill="none" xmlns="http://www.w3.org/2000/svg">
<path d="M10.758 4.13551L15.621 9.00001H20.3775L25.242 4.13701C25.5235 3.85555 25.9052 3.69743 26.3033 3.69743C26.7013 3.69743 27.083 3.85555 27.3645 4.13701C27.646 4.41847 27.8041 4.80022 27.8041 5.19826C27.8041 5.59631 27.646 5.97805 27.3645 6.25951L24.621 9.00001H27.75C28.4394 9.00001 29.1221 9.13581 29.7591 9.39964C30.396 9.66348 30.9748 10.0502 31.4623 10.5377C31.9498 11.0252 32.3365 11.604 32.6004 12.2409C32.8642 12.8779 33 13.5606 33 14.25V26.25C33 26.9395 32.8642 27.6221 32.6004 28.2591C32.3365 28.8961 31.9498 29.4748 31.4623 29.9623C30.9748 30.4498 30.396 30.8365 29.7591 31.1004C29.1221 31.3642 28.4394 31.5 27.75 31.5H8.25C7.56056 31.5 6.87787 31.3642 6.24091 31.1004C5.60395 30.8365 5.0252 30.4498 4.53769 29.9623C4.05018 29.4748 3.66347 28.8961 3.39963 28.2591C3.1358 27.6221 3 26.9395 3 26.25V14.25C3 13.5606 3.1358 12.8779 3.39963 12.2409C3.66347 11.604 4.05018 11.0252 4.53769 10.5377C5.0252 10.0502 5.60395 9.66348 6.24091 9.39964C6.87787 9.13581 7.56056 9.00001 8.25 9.00001H11.3775L8.6355 6.25651C8.49613 6.11715 8.38558 5.9517 8.31016 5.76961C8.23474 5.58752 8.19592 5.39235 8.19592 5.19526C8.19592 4.79722 8.35404 4.41547 8.6355 4.13401C8.91696 3.85255 9.2987 3.69443 9.69675 3.69443C9.89384 3.69443 10.089 3.73325 10.2711 3.80867C10.4532 3.8841 10.6186 3.99465 10.758 4.13401V4.13551ZM27.75 12H8.25C7.69068 12 7.15141 12.2084 6.73737 12.5844C6.32333 12.9605 6.06419 13.4773 6.0105 14.034L6 14.25V26.25C6.00003 26.8093 6.20838 27.3486 6.58443 27.7626C6.96048 28.1767 7.47726 28.4358 8.034 28.4895L8.25 28.5H27.75C28.3093 28.5 28.8486 28.2916 29.2626 27.9156C29.6767 27.5395 29.9358 27.0228 29.9895 26.466L30 26.25V14.25C30 13.6533 29.7629 13.081 29.341 12.659C28.919 12.2371 28.3467 12 27.75 12ZM12 16.5C12.3978 16.5 12.7794 16.658 13.0607 16.9394C13.342 17.2207 13.5 17.6022 13.5 18V21C13.4999 21.3978 13.3419 21.7793 13.0606 22.0605C12.7793 22.3418 12.3978 22.4998 12 22.4998C11.6022 22.4998 11.2207 22.3418 10.9394 22.0605C10.6581 21.7793 10.5001 21.3978 10.5 21V18C10.5 17.6022 10.658 17.2207 10.9393 16.9394C11.2206 16.658 11.6022 16.5 12 16.5ZM24 16.5C24.3978 16.5 24.7794 16.658 25.0607 16.9394C25.342 17.2207 25.5 17.6022 25.5 18V21C25.4999 21.3978 25.3419 21.7793 25.0606 22.0605C24.7793 22.3418 24.3978 22.4998 24 22.4998C23.6022 22.4998 23.2207 22.3418 22.9394 22.0605C22.6581 21.7793 22.5001 21.3978 22.5 21V18C22.5 17.6022 22.658 17.2207 22.9393 16.9394C23.2206 16.658 23.6022 16.5 24 16.5Z" fill="black"/>
</svg>
