<svg width="36" height="36" viewBox="0 0 36 36" fill="none" xmlns="http://www.w3.org/2000/svg">
<path fill-rule="evenodd" clip-rule="evenodd" d="M7.82392 9.32352C10.5795 8.66765 13.5628 9.22514 15.9918 10.6435C17.7922 11.7256 19.3594 13.1358 21.0089 14.4202C20.0977 15.0351 19.1947 15.6581 18.2725 16.2566C16.5874 14.9913 15.0339 13.4446 12.9947 12.7477C11.1229 12.1055 8.93822 12.0099 7.15973 12.9855C5.33734 13.9474 4.08581 15.9232 4.08855 17.9892C4.03366 20.0634 5.255 22.0747 7.06093 23.0831C9.00683 24.1981 11.4907 24.0505 13.4695 23.0995C15.9204 21.9053 17.6028 19.6589 19.1124 17.4727C20.7344 14.964 22.1781 12.346 23.7589 9.81269C24.1047 9.17048 24.9171 8.82615 25.6115 9.0885C26.2565 9.29346 26.5337 9.95753 26.8411 10.4959C29.2838 14.882 31.7566 19.249 34.2295 23.616C34.6165 24.3156 35.1819 25.0426 34.9431 25.8952C34.7619 26.9473 33.3567 27.308 32.5553 26.715C29.1465 24.2008 25.7213 21.7031 22.318 19.1752C23.1606 18.4729 24.1157 17.9182 25.0132 17.2896C26.1934 18.1614 27.3735 19.0359 28.5592 19.8994C27.4257 17.8061 26.2126 15.7592 25.0653 13.6741C22.8724 17.0601 21.083 20.7849 18.1161 23.5969C15.9863 25.7039 13.0496 27.1441 9.99488 26.9774C5.25774 27.1933 0.967972 22.941 1.00914 18.2488C0.811531 14.166 3.84154 10.2554 7.82392 9.32352Z" fill="black"/>
</svg>
