<svg width="36" height="36" viewBox="0 0 36 36" fill="none" xmlns="http://www.w3.org/2000/svg">
<path d="M24.254 34C23.4466 34 22.9084 33.4624 22.9084 32.6559V27.4139C23.043 26.3386 22.6393 25.5321 21.9665 24.8601C21.5629 24.4568 21.4283 23.9192 21.6974 23.516C21.832 22.9783 22.3702 22.7095 22.7739 22.5751C26.6759 22.1718 30.3089 20.8277 30.3089 14.5104C30.3089 13.0319 29.7707 11.5534 28.6943 10.3437C28.2906 9.94046 28.2906 9.40282 28.4251 8.99959C28.8288 7.9243 28.8288 6.84901 28.5597 5.77372C27.8869 5.90814 26.8105 6.31137 25.0613 7.52107C24.7922 7.78989 24.3885 7.78989 23.9848 7.65548C21.1592 6.84901 18.0644 6.84901 15.2388 7.65548C14.8351 7.78989 14.4315 7.78989 14.0278 7.52107C12.4132 6.31137 11.2022 5.90814 10.5294 5.77372C10.2603 6.84901 10.2603 7.9243 10.6639 8.99959C10.7985 9.53723 10.7985 10.0749 10.3948 10.3437C9.3184 11.5534 8.78018 13.0319 8.78018 14.5104C8.78018 20.8277 12.4132 22.1718 16.3152 22.5751C16.8535 22.5751 17.2571 22.9783 17.3917 23.516C17.5262 24.0536 17.3917 24.5912 17.1226 24.8601C16.4498 25.5321 16.1807 26.3386 16.1807 27.2795V32.5215C16.1807 33.3279 15.6425 33.8656 14.8351 33.8656C14.0278 33.8656 13.4896 33.3279 13.4896 32.5215V30.2365C9.45295 30.9086 7.70374 28.6236 6.49275 27.145C5.95453 26.473 5.55087 25.9354 5.01265 25.8009C4.33988 25.6665 3.80166 24.8601 4.07077 24.188C4.20532 23.516 5.01265 22.9783 5.68543 23.2471C7.03097 23.6504 7.8383 24.5912 8.64563 25.5321C9.72206 27.0106 10.6639 28.0859 13.4896 27.5483V27.4139C13.4896 26.6074 13.6241 25.6665 13.8933 24.9945C10.1257 24.188 6.08909 21.7686 6.08909 14.6448C6.08909 12.6287 6.76186 10.7469 7.97285 9.26841C7.43463 7.38665 7.56919 5.63931 8.37652 3.89197C8.51107 3.48874 8.78018 3.21992 9.18384 3.08551C9.72206 2.9511 11.4713 2.68228 15.1042 4.96726C18.0644 4.29521 21.1592 4.29521 23.9848 4.96726C27.4833 2.68228 29.367 2.9511 29.9052 3.08551C30.3089 3.21992 30.578 3.48874 30.7126 3.89197C31.3853 5.63931 31.5199 7.38665 31.1162 9.134C32.3272 10.6125 33 12.4943 33 14.5104C33 22.1718 28.4251 24.188 25.1958 24.9945C25.4649 25.8009 25.5995 26.7418 25.5995 27.5483V32.6559C25.5995 33.4624 25.0613 34 24.254 34Z" fill="black"/>
</svg>
