<svg width="36" height="36" viewBox="0 0 36 36" fill="none" xmlns="http://www.w3.org/2000/svg">
<path d="M30.7975 16.0387C28.8682 14.9208 26.9439 13.7939 25.0248 12.658L25.0205 12.6551L7.43837 2.35881C7.13871 2.17298 6.8026 2.05585 6.45359 2.01563C6.10459 1.9754 5.75114 2.01306 5.418 2.12597C5.38105 2.13893 5.34466 2.1535 5.30894 2.16962C5.22408 2.19802 5.14115 2.23205 5.0607 2.2715C4.72465 2.47538 4.44896 2.76732 4.26261 3.11662C4.07627 3.46592 3.98615 3.85969 4.00173 4.25653V31.8869C3.99106 32.2565 4.07738 32.6224 4.25184 32.9472C4.4263 33.2719 4.68265 33.5438 4.99469 33.7351C5.06679 33.771 5.14108 33.8021 5.21711 33.8283C5.25789 33.8473 5.29955 33.8643 5.34195 33.8792C5.54723 33.955 5.76349 33.9958 5.98192 34C6.40167 33.9951 6.81281 33.8787 7.17435 33.6624L25.022 23.2104L30.7918 19.8312C31.1485 19.65 31.4497 19.3734 31.6626 19.0312C31.8756 18.6891 31.9922 18.2944 32 17.8898C31.9824 17.5002 31.8616 17.1227 31.6502 16.7969C31.4389 16.4711 31.1448 16.2092 30.799 16.0387H30.7975ZM6.87014 29.4071V6.50497L18.2635 17.9422L6.87014 29.4071ZM14.0706 26.2607L20.3039 19.9883L21.9541 21.6459L14.0706 26.2607ZM20.301 15.8917L13.9902 9.5582L21.9598 14.2253L20.301 15.8917ZM24.5298 20.1368L22.3401 17.9393L24.5326 15.733C25.5658 16.3428 27.1772 17.2902 28.2864 17.9378L24.5298 20.1368Z" fill="black"/>
</svg>
