<svg width="36" height="36" viewBox="0 0 36 36" fill="none" xmlns="http://www.w3.org/2000/svg">
<path d="M23.0582 13.5559C23.4178 15.1726 23.84 16.6612 24.0902 18.1658C24.7312 22.0874 21.9481 24.5364 19.3525 25.0166C16.2722 25.5769 13.2702 23.448 12.5509 20.1987C11.6128 15.9249 13.6298 12.0673 17.6169 10.4987C17.8671 10.4027 18.1016 10.2906 18.4456 10.1626C18.3049 9.61834 18.1798 9.05811 18.0078 8.51389C16.9133 4.67231 20.4627 1.16688 24.1684 2.17529C25.1847 2.4474 26.1541 3.02364 27.0297 3.63189C27.921 4.24014 27.9991 5.3766 27.3737 6.19293C26.7639 6.99326 25.7007 7.0733 24.8251 6.46505C24.3716 6.14492 23.8869 5.8568 23.3709 5.71274C22.2295 5.3766 21.3695 6.1129 21.479 7.3294C21.5415 8.03369 21.7604 8.73798 21.9481 9.42626C21.9793 9.57032 22.2139 9.73038 22.3702 9.74639C29.4064 10.1946 35.3949 19.3983 29.7816 28.0099C25.4818 34.6046 16.0221 35.9811 9.75208 31.0031C0.917815 23.9602 2.52831 9.98649 12.7385 5.24855C13.2702 5.00845 13.88 4.83238 14.4428 4.84838C15.2246 4.8804 15.7875 5.56868 15.9126 6.36901C16.0377 7.15333 15.6468 7.85762 14.9119 8.25778C13.8956 8.81801 12.7698 9.2822 11.8786 10.0185C8.20413 13.0597 6.7969 17.0294 7.92268 21.7193C9.0172 26.2972 11.8942 29.2904 16.4911 30.1868C20.7441 31.0191 25.7163 29.2904 27.7333 24.3764C29.3282 20.4868 28.2493 16.2611 24.2309 14.0041C23.8713 13.8121 23.4804 13.716 23.0582 13.5559ZM19.3838 13.716C18.2893 14.0522 17.4137 14.6124 16.757 15.4607C15.6937 16.8213 15.5843 19.0782 16.4911 20.4228C17.054 21.2551 17.9296 21.6072 18.8522 21.3832C19.8059 21.1431 20.3532 20.5348 20.4627 19.4784C20.5096 18.9662 20.5408 18.4219 20.4314 17.9257C20.1187 16.5492 19.759 15.1726 19.3838 13.716Z" fill="black"/>
</svg>
